<svg width="150" height="206" viewBox="0 0 150 206" fill="none" xmlns="http://www.w3.org/2000/svg">
<path d="M142.242 90.8653C139.461 88.6303 136.529 86.592 133.507 84.7057C132.551 84.1068 131.585 83.5346 130.602 82.9803C131.281 77.5806 131.916 72.1363 131.639 66.6919C131.505 63.9384 131.129 61.1849 130.423 58.5208C129.788 56.1517 129.109 53.2552 126.597 52.2718C125.479 51.8338 124.263 51.6907 123.119 51.3063C122.073 50.9487 121.072 50.4749 120.115 49.9206C118.193 48.7942 116.513 47.3013 115.109 45.5759C113.714 43.8594 112.615 41.8658 111.917 39.7649C111.748 39.2464 111.032 37.7356 111.497 37.2796C111.676 37.1008 111.962 37.1009 112.168 37.226C112.651 37.53 113.08 38.2362 113.482 38.6564C117.532 42.9207 122.431 46.3626 127.813 48.7138C128.456 48.9998 129.252 48.678 129.261 47.8823C129.27 44.369 129.279 40.8556 129.288 37.3512C129.288 35.4112 129.288 33.4623 129.297 31.5224V30.1635C129.297 29.9221 129.243 29.6182 129.404 29.4125C129.904 28.7599 130.584 29.8148 130.87 30.1546C133.176 32.8455 135.34 35.9118 136.681 39.2107C137.334 40.8288 137.486 42.3486 137.566 44.074C137.655 45.9603 137.727 47.8466 137.781 49.724C137.888 53.7112 137.888 57.6894 137.933 61.6766C137.941 62.66 139.211 62.9461 139.72 62.1593C142.009 58.6817 143.904 55.0253 145.469 51.1722C146.238 49.2859 146.944 47.3728 147.668 45.4686C148.026 44.521 148.392 43.5644 148.759 42.6168C149.215 41.4367 149.671 40.2298 149.536 38.9425C149.42 37.8607 148.893 36.9042 148.312 36.0102C147.588 34.9016 146.837 33.802 146.095 32.7024C144.655 30.5658 143.198 28.447 141.732 26.3283C138.853 22.1802 135.921 18.0768 132.935 14.0091C129.529 9.37827 126.06 4.80105 122.52 0.27747C122.18 -0.160584 121.528 -0.017546 121.161 0.27747C115.896 4.48816 110.764 8.8687 105.776 13.3923C103.317 15.6273 100.895 17.898 98.5076 20.2045C97.3097 21.3577 96.1296 22.5199 94.9495 23.691C93.841 24.7906 92.7861 26.0601 91.5345 27.0077C88.7006 29.1354 84.9637 27.7944 81.9957 26.6948C81.5576 26.5339 81.1553 26.811 80.9139 27.1329C75.7556 33.8557 69.9894 40.0957 63.7225 45.7994C63.4365 46.0586 63.3292 46.6308 63.5705 46.9615C67.6382 52.5311 73.4044 56.4915 79.8054 58.9499C87.1003 61.7481 95.03 62.4186 102.781 61.9537C104.9 61.8286 107.018 61.623 109.119 61.3548C110.129 61.2296 111.14 61.0866 112.15 60.9346C112.659 60.8541 113.178 60.7647 113.688 60.6932C113.938 60.6574 114.161 60.6127 114.349 60.8184C114.894 61.4084 113.813 61.9537 113.446 62.213C112.856 62.6332 112.248 63.0176 111.622 63.3752C108.109 65.3866 104.131 66.5041 100.144 67.0673C92.5626 68.1401 84.776 67.264 77.329 65.6995C67.6024 63.6166 58.0546 60.4518 48.1046 59.5042C46.1735 59.3165 44.2068 59.2271 42.2757 59.5221C40.9616 59.7188 39.5133 60.1658 38.7177 61.3101C37.7164 62.7404 38.4316 64.1261 39.4954 65.2436C40.899 66.7187 42.678 67.8719 44.3856 68.9626C46.9513 70.5986 49.6243 72.0647 52.3242 73.4683C59.1989 77.0532 66.2793 80.2447 73.4223 83.2485C80.8067 86.3507 88.2983 89.1846 95.9061 91.6699C104.533 94.486 113.214 97.1679 122.002 99.4208C127.348 100.789 132.774 102.049 138.272 102.657C140.883 102.943 143.931 103.274 146.461 102.353C148.794 101.504 149.59 99.4655 148.365 97.2126C146.98 94.6648 144.476 92.6533 142.259 90.8653H142.242Z" fill="url(#paint0_linear_19_958)"/>
<path d="M34.5167 100.732C19.4273 99.7928 17.8847 80.7484 17.8731 80.5512C17.8615 80.3308 17.6759 80.1685 17.4556 80.1685C17.2352 80.1685 17.0612 80.3424 17.038 80.5512C17.0264 80.7484 15.4839 99.7813 0.394405 100.732C0.174036 100.744 6.10352e-05 100.929 6.10352e-05 101.15C6.10352e-05 101.37 0.174036 101.556 0.394405 101.567C15.4839 102.507 17.0264 121.551 17.038 121.749C17.0496 121.969 17.2352 122.131 17.4556 122.131C17.6759 122.131 17.8499 121.957 17.8731 121.749C17.8847 121.551 19.4273 102.518 34.5167 101.567C34.7371 101.556 34.9111 101.37 34.9111 101.15C34.9111 100.929 34.7371 100.744 34.5167 100.732Z" fill="url(#paint1_linear_19_958)"/>
<path d="M80.0122 100.55C75.8716 100.307 75.4425 95.528 75.4309 95.3193C75.4193 95.0989 75.2337 94.9365 75.0133 94.9365C74.793 94.9365 74.619 95.0989 74.5958 95.3193C74.5842 95.528 74.1551 100.307 70.0145 100.55C69.7941 100.562 69.6201 100.747 69.6201 100.968C69.6201 101.188 69.7941 101.374 70.0145 101.385C74.1551 101.629 74.5842 106.407 74.5958 106.616C74.6074 106.836 74.793 106.999 75.0133 106.999C75.2337 106.999 75.4077 106.836 75.4309 106.616C75.4425 106.407 75.8716 101.629 80.0122 101.385C80.2326 101.374 80.4066 101.188 80.4066 100.968C80.4066 100.747 80.2326 100.562 80.0122 100.55Z" fill="url(#paint2_linear_19_958)"/>
<path d="M61.7486 89.8769C53.4442 89.3898 52.6207 79.8907 52.5859 79.4964C52.5743 79.276 52.3887 79.1136 52.1684 79.1136C51.948 79.1136 51.774 79.276 51.7508 79.4964C51.716 79.9023 50.8925 89.4014 42.5881 89.8769C42.3678 89.8885 42.1938 90.0741 42.1938 90.2945C42.1938 90.5148 42.3678 90.7004 42.5881 90.712C50.8925 91.1991 51.716 100.698 51.7508 101.093C51.7624 101.313 51.948 101.475 52.1684 101.475C52.3887 101.475 52.5627 101.313 52.5859 101.093C52.6207 100.687 53.4442 91.1875 61.7486 90.712C61.969 90.7004 62.1429 90.5148 62.1429 90.2945C62.1429 90.0741 61.969 89.8885 61.7486 89.8769Z" fill="url(#paint3_linear_19_958)"/>
<path d="M129.698 115.995C128.92 112.571 127.49 110.927 125.416 111.105C88.235 114.315 76.8367 114.315 44.1435 111.105C42.6148 110.962 41.5241 112.509 40.8805 115.718C37.2419 133.839 47.8625 199.27 56.8203 202.024C59.2609 202.775 62.0322 203.41 65.0807 203.919C64.3655 198.725 63.704 193.522 63.0871 188.319C61.8892 178.208 60.8522 168.088 59.9582 157.95C59.0999 148.224 58.3758 138.479 57.8841 128.726C57.8305 127.653 59.6095 127.403 59.7704 128.467C60.584 133.857 61.3886 139.257 62.1931 144.648C63.6682 154.544 65.1433 164.441 66.6273 174.328C68.1113 184.243 69.3808 194.219 71.2403 204.071C71.2761 204.241 71.2582 204.393 71.2224 204.527C71.2224 204.599 71.2045 204.67 71.1777 204.733C74.6196 205.09 78.2671 205.314 82.0486 205.385C82.0129 205.287 81.995 205.189 81.995 205.09C82.0307 200.147 82.2185 195.212 82.442 190.277C82.88 180.532 83.4254 170.797 84.0154 161.061C84.5518 152.202 85.0971 143.334 85.8302 134.483C85.9285 133.267 87.7523 133.232 87.7523 134.483C87.7523 139.615 87.7612 144.755 87.7791 149.887C87.8417 168.285 88.0115 186.683 88.244 205.081C88.244 205.189 88.2261 205.287 88.1993 205.385C92.2937 205.296 96.2988 205.037 99.9195 204.634C99.8301 204.42 99.7943 204.178 99.8301 203.964C100.608 198.475 101.43 192.986 102.315 187.515C105.498 167.802 109.387 148.215 113.91 128.762C114.044 128.172 114.563 127.993 115.01 128.109C115.466 128.136 115.859 128.431 115.797 129.021C115.26 133.518 114.697 138.005 114.143 142.493C112.864 152.765 111.55 163.028 110.209 173.291C108.886 183.447 107.545 193.594 106.159 203.74C108.815 203.249 111.032 202.677 112.757 202.033C115.725 200.915 121.08 182.589 124.835 165.066C129.698 142.368 131.513 124.032 129.707 116.013L129.698 115.995Z" fill="url(#paint4_linear_19_958)"/>
<defs>
<linearGradient id="paint0_linear_19_958" x1="140.952" y1="89.8845" x2="99.4547" y2="1.66744" gradientUnits="userSpaceOnUse">
<stop stop-color="#3B15B2"/>
<stop offset="1" stop-color="#A022F5"/>
</linearGradient>
<linearGradient id="paint1_linear_19_958" x1="32.2114" y1="116.803" x2="12.6701" y2="84.8388" gradientUnits="userSpaceOnUse">
<stop stop-color="#3B15B2"/>
<stop offset="1" stop-color="#A022F5"/>
</linearGradient>
<linearGradient id="paint2_linear_19_958" x1="79.5725" y1="105.467" x2="74.1481" y2="95.9302" gradientUnits="userSpaceOnUse">
<stop stop-color="#3B15B2"/>
<stop offset="1" stop-color="#A022F5"/>
</linearGradient>
<linearGradient id="paint3_linear_19_958" x1="60.6003" y1="98.6359" x2="50.5321" y2="80.9762" gradientUnits="userSpaceOnUse">
<stop stop-color="#3B15B2"/>
<stop offset="1" stop-color="#A022F5"/>
</linearGradient>
<linearGradient id="paint4_linear_19_958" x1="123.413" y1="193.412" x2="82.5244" y2="116.471" gradientUnits="userSpaceOnUse">
<stop stop-color="#3B15B2"/>
<stop offset="1" stop-color="#A022F5"/>
</linearGradient>
</defs>
</svg>
